# This file uses centimeters as units for non-parametric coordinates.

mtllib Orevein06.mtl
g default
v -2.037102 0.000000 -2.037102
v -3.204237 0.000000 0.535600
v -2.421975 0.000000 2.421976
v -0.046322 0.000000 3.514143
v 2.212662 0.000000 2.212662
v 2.964027 0.000000 0.742113
v 2.303751 0.000000 -1.800236
v -2.890060 0.687772 0.551165
v -2.205014 0.968802 2.205014
v 0.019039 0.542461 3.101091
v 1.980746 0.947648 1.980747
v 2.714437 1.681734 0.667099
v 2.139182 0.968802 -1.478076
v 0.344970 1.790113 -2.038154
v -1.265801 1.383017 -1.265801
v -2.321202 1.087959 0.531089
v -1.796890 1.087959 1.796890
v 0.019039 1.196938 2.552308
v 1.576983 1.575701 1.576983
v 2.066399 1.902577 0.606960
v 1.636130 1.790113 -1.110403
v 0.272514 1.838514 -1.241317
v -0.685047 1.601427 -0.685046
v -1.305750 1.382661 0.336947
v -1.021994 1.441303 1.021994
v 0.116530 1.699541 1.350846
v 0.996229 1.879601 0.996228
v 1.279984 1.933691 0.311182
v 1.078349 1.838514 -0.836773
v 0.000000 1.836497 -0.000000
v -1.611814 0.776739 -1.611814
v 0.399433 1.047635 -2.588282
v 2.257076 0.274768 -1.708867
v 0.454962 0.108844 -3.140476
vt 0.020745 0.025017
vt 0.023406 0.152750
vt 0.118167 0.025017
vt 0.117577 0.152750
vt 0.242123 0.025017
vt 0.233501 0.176230
vt 0.370916 0.025017
vt 0.371683 0.246747
vt 0.479389 0.025916
vt 0.461883 0.258434
vt 0.611125 0.025017
vt 0.611977 0.152750
vt 0.836252 0.261036
vt 0.707206 0.261036
vt 0.026899 0.350615
vt 0.116065 0.350615
vt 0.193636 0.301345
vt 0.373587 0.355033
vt 0.475068 0.355033
vt 0.610039 0.270026
vt 0.828909 0.416879
vt 0.696674 0.416879
vt 0.022490 0.506459
vt 0.109580 0.506459
vt 0.292327 0.438886
vt 0.379276 0.416879
vt 0.468726 0.416879
vt 0.618214 0.416879
vt 0.724366 0.551751
vt 0.839817 0.025017
vt 0.983628 0.025017
vt 0.986289 0.152750
vt 0.989782 0.350615
vt 0.985373 0.506459
vt 0.705439 0.750732
vt 0.541070 0.696148
vt 0.588865 0.956196
vt 0.448776 0.962680
vt 0.287493 0.737282
vt 0.300145 0.605812
vt 0.390193 0.506078
vt 0.624873 0.460609
vt 0.848673 0.158614
vt 0.725704 0.186014
vt 0.611366 0.061244
vt 0.703319 0.025017
vn -0.881903 0.463156 -0.087942
vn -0.620143 0.404530 0.672144
vn -0.532965 0.591975 0.604577
vn -0.814750 0.570847 -0.101568
vn 0.004947 0.440189 0.897892
vn 0.070447 0.540832 0.838176
vn 0.664736 0.314366 0.677716
vn 0.589655 0.435943 0.679898
vn 0.977882 0.204941 0.041779
vn 0.897512 0.440873 0.010160
vn 0.800174 0.295944 -0.521669
vn 0.819556 0.284127 -0.497594
vn 0.778952 0.387390 -0.493115
vn -0.596918 0.530773 -0.601638
vn -0.579184 0.571899 -0.580928
vn 0.044619 0.562890 -0.825326
vn 0.053621 0.523004 -0.850642
vn -0.273597 0.906146 0.322559
vn -0.499124 0.860633 -0.100925
vn 0.006033 0.824039 0.566500
vn 0.218644 0.802490 0.555162
vn 0.415677 0.908593 0.040894
vn 0.434214 0.798862 -0.416266
vn -0.481465 0.788172 -0.383375
vn -0.300677 0.953193 0.031896
vn -0.294094 0.954863 -0.041779
vn -0.251576 0.940536 0.228256
vn -0.111499 0.927691 0.356312
vn 0.035675 0.934700 0.353643
vn 0.065688 0.996890 0.043541
vn 0.051169 0.995816 -0.075707
vn -0.003874 0.776970 -0.629525
vn -0.158384 0.984439 -0.076119
vn -0.105769 0.994156 -0.021605
vn -0.302373 0.952872 -0.024601
vn -0.192515 0.981063 0.021271
vn -0.320698 0.946632 0.032245
vn -0.280793 0.955656 0.088749
vn -0.208899 0.970978 0.116464
vn -0.125095 0.988724 0.082316
vn -0.070921 0.997286 -0.019770
vn -0.032346 0.998705 -0.039277
s 1
g oreVein06
usemtl lambert2SG
f 2/1/1 3/3/2 9/4/3 8/2/4
f 3/3/2 4/5/5 10/6/6 9/4/3
f 4/5/5 5/7/7 11/8/8 10/6/6
f 5/7/7 6/9/9 12/10/10 11/8/8
f 6/9/9 7/11/11 33/45/12 13/12/13 12/10/10
f 1/30/14 31/43/15 32/44/16 34/46/17
f 8/2/4 9/4/3 17/16/18 16/15/19
f 9/4/3 10/6/6 18/17/20 17/16/18
f 10/6/6 11/8/8 19/18/21 18/17/20
f 11/8/8 12/10/10 20/19/22 19/18/21
f 12/10/10 13/12/13 21/20/23 20/19/22
f 15/13/24 16/33/19 24/34/25 23/21/26
f 16/15/19 17/16/18 25/24/27 24/23/25
f 17/16/18 18/17/20 26/25/28 25/24/27
f 18/17/20 19/18/21 27/26/29 26/25/28
f 19/18/21 20/19/22 28/27/30 27/26/29
f 20/19/22 21/20/23 29/28/31 28/27/30
f 21/20/23 14/14/32 22/22/33 29/28/31
s 2
f 22/29/34 23/35/35 30/36/36
f 23/35/35 24/37/37 30/36/36
f 24/37/37 25/38/38 30/36/36
f 25/38/38 26/39/39 30/36/36
f 26/39/39 27/40/40 30/36/36
f 27/40/40 28/41/41 30/36/36
f 28/41/41 29/42/42 30/36/36
f 29/42/42 22/29/34 30/36/36
s 1
f 31/43/15 8/32/4 16/33/19 15/13/24
f 1/30/14 2/31/1 8/32/4 31/43/15
f 15/13/24 23/21/26 22/22/33 14/14/32
f 32/44/16 14/14/32 21/20/23 13/12/13
f 15/13/24 14/14/32 32/44/16 31/43/15
f 33/45/12 7/11/11 34/46/17 32/44/16 13/12/13
